<?xml version="1.0" encoding="UTF-8" standalone="no"?>
<svg width="286px" height="236px" viewBox="0 0 286 236" version="1.1" xmlns="http://www.w3.org/2000/svg" xmlns:xlink="http://www.w3.org/1999/xlink">
    <!-- Generator: Sketch 46.2 (44496) - http://www.bohemiancoding.com/sketch -->
    <title>logo</title>
    <desc>Created with Sketch.</desc>
    <defs></defs>
    <g id="Page-1" stroke="none" stroke-width="1" fill="none" fill-rule="evenodd">
        <g id="logo" fill-rule="nonzero">
            <path d="M250.51,118 C250.51,182.618 197.276,235.8 132.59,235.8 C67.905,235.8 14.67,182.615 14.67,118 C14.67,53.378 66.66,0.2 132.59,0.2 C196.027,0.2 250.51,53.381 250.51,118" id="Shape" fill="#0B3D91"></path>
            <path d="M159.19,180 C209.569,200.724 200.826,148.353 173.972,108.253 C158.752,85.535 138.902,66.608 126.382,57.473 C84.869,27.175 59.242,45.551 88.556,105.303 C98.0337,124.622 110.207,137.661 119.715,149.951 C126.976,159.3338 141.119,164.032 136.137,168.485 C130.5226,173.5057 116.928,151.361 116.928,151.361 C106.888,139.251 97.318,126.331 87.455,108.601 C64.92,68.102 68.169,26.768 108.958,44.773 C143.573,60.061 176.636,102.939 189.929,133.389 C196.0691,147.448 212.809,203.081 159.492,180.589" id="Shape" fill="#FFFFFF"></path>
            <path d="M17.5228209,143.648459 C34.913323,133.747013 53.7639077,125.967422 81.461,116.82 C131.71,100.22 169.53,89.062 215.931,65.738 C236.701,55.3 272.741,31.891 285.631,11.54 C281.771,19.416 269.821,34.746 264.411,41.527 C205.973425,114.697415 86.2401742,116.102354 18.2212173,146.189791 L18.2246,146.2021 C12.7995,148.6307 7.6492,151.3861 3.3596,154.028 L0.375,152.9419 C5.28,149.8968 11.0614,146.7771 17.515,143.62 L17.5228209,143.648459 Z" id="Combined-Shape" fill="#FC3D21"></path>
            <path d="M34.678,95.303 C54.962,95.46216 52.972,95.26228 53.209,95.4999 C53.56357,95.4999 69.405,122.7819 69.405,123.0169 C69.405,123.13347 69.28656,113.3218 69.28656,101.0509 C69.28656,99.6337 65.38706,95.5004 65.50366,95.5004 C71.29326,95.5004 78.86066,95.61884 78.86066,95.61884 C76.02526,98.92574 75.45886,98.65454 75.43526,100.69784 C75.35531,107.26944 75.28058,119.41384 75.43526,133.05584 C75.4573,135.10064 76.97236,135.89014 79.45466,139.43354 L60.89266,139.43354 C54.86356,129.39554 43.81566,110.56454 43.87066,110.61754 C43.95547,110.70384 43.63266,122.42954 43.98611,131.87454 C44.10567,134.99614 45.52431,136.00754 48.12661,138.84334 C48.12661,138.84334 51.11971,138.76304 33.58461,138.96028 C38.90421,136.12598 38.19771,132.58368 38.19511,132.46558 C38.00382,119.41358 38.15551,108.25458 38.15551,101.05058 C38.15551,99.86998 38.07518,99.98648 34.41221,95.50008" id="Shape" fill="#FFFFFF"></path>
            <path d="M98.1,115.46 C99.8033,109.5474 101.2582,104.263 101.9487,100.818 C102.06564,100.22693 100.6485,98.1021 98.4023,95.9755 L98.24314,95.64559 C109.07414,95.68071 120.38914,95.739 120.38914,95.739 C123.34454,102.9432 130.08274,123.136 135.16614,135.537 C136.51044,138.8148 138.83104,139.4335 138.83104,139.4335 C129.61004,139.31693 112.49804,139.3958 112.58904,139.31693 C117.19804,135.18093 116.60694,135.18093 114.59724,129.15993 L100.17624,129.15993 C97.22084,136.00773 101.09722,139.22293 101.59344,139.19793 C98.31114,139.36718 87.17244,139.19793 87.17244,139.19793 C93.20154,134.94503 92.84554,133.64743 92.84554,133.64743 C94.50214,127.75543 96.42114,121.30043 98.10094,115.45643 L104.01764,115.45743 C102.74654,119.53403 101.47554,123.60723 101.47554,123.60723 L112.94554,123.60723 L106.56034,107.30923 C106.56034,107.30923 105.28924,111.38393 104.01784,115.45723 L98.10114,115.45623" id="Shape" fill="#FFFFFF"></path>
            <path d="M197.17,116.05 C198.87,110.1389 200.3267,104.853 201.0157,101.406 C201.13227,100.81792 199.7136,98.6931 197.4689,96.565 L197.30862,96.23659 C208.14262,96.27171 219.46062,96.33 219.46062,96.33 C222.41152,103.5342 229.15122,123.728 234.23362,136.128 C235.57642,139.4073 237.89702,140.026 237.89702,140.026 C228.68052,139.90644 211.56802,139.9883 211.65602,139.90644 C216.26802,135.77494 215.67692,135.77494 213.66722,129.75144 L199.24322,129.75144 C196.28752,136.60064 200.16233,139.81444 200.65882,139.79144 C197.37922,139.95919 186.23882,139.79144 186.23882,139.79144 C192.26642,135.53854 191.91302,134.23944 191.91302,134.23944 C193.56962,128.34634 195.48892,121.89344 197.17022,116.05044 L203.08542,116.05044 C201.81142,120.12664 200.54592,124.20134 200.54592,124.20134 L212.00992,124.20134 L205.62512,107.90334 C205.62512,107.90334 204.35812,111.97654 203.08562,116.05014 L197.17042,116.05014" id="Shape" fill="#FFFFFF"></path>
            <path d="M178.52,106.37 C178.28349,97.9826 178.52,95.267 178.52,95.267 C174.8536,98.2209 176.7031,97.8442 167.527,96.3307 C141.082,91.9672 139.067,116.6557 153.458,122.1937 C165.538,126.8434 169.819,127.7543 167.997,132.1123 C167.40593,133.5324 156.413,138.728 145.066,128.2169 L145.29952,142.8609 C146.71812,141.4 150.62212,138.7279 150.62212,138.7279 C150.73869,138.7279 162.92212,144.0957 173.90812,138.4899 C190.81612,129.8704 182.37742,115.9179 164.33402,110.3839 C149.32002,105.7775 163.50644,95.0299 178.40002,106.487" id="Shape" fill="#FFFFFF"></path>
            <path d="M134.25,10.898 C134.25,11.4263 133.8181,11.8597 133.28979,11.8597 C132.76448,11.8597 132.32958,11.4263 132.32958,10.898 C132.32958,10.37418 132.76448,9.93928 133.28979,9.93928 C133.8181,9.93928 134.25,10.37418 134.25,10.898" id="Shape" fill="#FFFFFF"></path>
            <path d="M140.91,25.44 C140.91,26.08786 140.37273,26.6206 139.7279,26.6206 C139.07855,26.6206 138.5443,26.08782 138.5443,25.44 C138.5443,24.79363 139.07858,24.2608 139.7279,24.2608 C140.37277,24.2608 140.91,24.79359 140.91,25.44" id="Shape" fill="#FFFFFF"></path>
            <path d="M158.19,49.206 C158.19,49.85274 157.65759,50.3866 157.0079,50.3866 C156.36153,50.3866 155.8258,49.85269 155.8258,49.206 C155.8258,48.55814 156.32197,48.0239 156.9717,48.0239 C157.62105,48.0239 158.1901,48.55818 158.1901,49.206" id="Shape" fill="#FFFFFF"></path>
            <path d="M130.41,33.633 C130.41,34.15981 129.97809,34.59171 129.44979,34.59171 C128.92261,34.59171 128.48771,34.1598 128.48771,33.633 C128.48771,33.10731 128.92261,32.67242 129.44979,32.67242 C129.97809,32.67242 130.41,33.10732 130.41,33.633" id="Shape" fill="#FFFFFF"></path>
            <path d="M140.76,39.096 C140.76,39.61982 140.32623,40.05471 139.80092,40.05471 C139.27411,40.05471 138.83921,39.61981 138.83921,39.096 C138.83921,38.57069 139.27411,38.13691 139.80092,38.13691 C140.32623,38.13691 140.76,38.57069 140.76,39.096" id="Shape" fill="#FFFFFF"></path>
            <path d="M127.31,23.815 C127.31,24.46323 126.77609,24.9956 126.1279,24.9956 C125.48004,24.9956 124.9458,24.46319 124.9458,23.815 C124.9458,23.16714 125.48008,22.6329 126.1279,22.6329 C126.77613,22.6329 127.31,23.16718 127.31,23.815" id="Shape" fill="#FFFFFF"></path>
            <path d="M111.65,33.338 C111.65,33.86481 111.2166,34.29821 110.6883,34.29821 C110.16149,34.29821 109.72809,33.86481 109.72809,33.338 C109.72809,32.81231 110.16149,32.37742 110.6883,32.37742 C111.2166,32.37742 111.65,32.81232 111.65,33.338" id="Shape" fill="#FFFFFF"></path>
            <path d="M114.45,35.255 C114.45,35.78368 114.0166,36.21708 113.4883,36.21708 C112.96149,36.21708 112.5266,35.78368 112.5266,35.255 C112.5266,34.72969 112.96149,34.29778 113.4883,34.29778 C114.0166,34.29778 114.45,34.72969 114.45,35.255" id="Shape" fill="#FFFFFF"></path>
            <path d="M117.26,37.175 C117.26,37.7033 116.82659,38.1367 116.29941,38.1367 C115.77261,38.1367 115.33771,37.7033 115.33771,37.175 C115.33771,36.65118 115.77261,36.21778 116.29941,36.21778 C116.82659,36.21778 117.26,36.65118 117.26,37.175" id="Shape" fill="#FFFFFF"></path>
            <path d="M112.98,40.867 C112.98,41.39381 112.54361,41.82721 112.01829,41.82721 C111.48999,41.82721 111.05622,41.39381 111.05622,40.867 C111.05622,40.34169 111.48999,39.90829 112.01829,39.90829 C112.54361,39.90829 112.98,40.34169 112.98,40.867" id="Shape" fill="#FFFFFF"></path>
            <path d="M90.664,56.514 C90.664,57.04081 90.2291,57.47272 89.7023,57.47272 C89.17549,57.47272 88.7406,57.04081 88.7406,56.514 C88.7406,55.98719 89.1755,55.55342 89.7023,55.55342 C90.22911,55.55342 90.664,55.9872 90.664,56.514" id="Shape" fill="#FFFFFF"></path>
            <path d="M94.8,61.535 C94.8,62.06069 94.3651,62.49409 93.8383,62.49409 C93.31149,62.49409 92.8766,62.06069 92.8766,61.535 C92.8766,61.0067 93.3115,60.57479 93.8383,60.57479 C94.36511,60.57479 94.8,61.0067 94.8,61.535" id="Shape" fill="#FFFFFF"></path>
            <path d="M91.512,142.58 C91.512,143.10718 91.0786,143.53909 90.55142,143.53909 C90.02461,143.53909 89.59121,143.10718 89.59121,142.58 C89.59121,142.05469 90.02461,141.61979 90.55142,141.61979 C91.0786,141.61979 91.512,142.05469 91.512,142.58" id="Shape" fill="#FFFFFF"></path>
            <path d="M92.103,164.94 C92.103,165.58786 91.56872,166.1192 90.9209,166.1192 C90.27267,166.1192 89.7388,165.58791 89.7388,164.94 C89.7388,164.29177 90.27271,163.7594 90.9209,163.7594 C91.56876,163.7594 92.103,164.29181 92.103,164.94" id="Shape" fill="#FFFFFF"></path>
            <path d="M79.392,176.39 C79.392,176.91382 78.9586,177.34871 78.43328,177.34871 C77.90647,177.34871 77.47158,176.91382 77.47158,176.39 C77.47158,175.8617 77.90648,175.42942 78.43328,175.42942 C78.95859,175.42942 79.392,175.8617 79.392,176.39" id="Shape" fill="#FFFFFF"></path>
            <path d="M64.174,181.03 C64.174,181.67786 63.63673,182.2092 62.9904,182.2092 C62.34217,182.2092 61.8083,181.67791 61.8083,181.03 C61.8083,180.38064 62.34221,179.8479 62.9904,179.8479 C63.63677,179.8479 64.174,180.38068 64.174,181.03" id="Shape" fill="#FFFFFF"></path>
            <path d="M61.07,170.7 C61.07,171.34488 60.53609,171.8792 59.8894,171.8792 C59.24154,171.8792 58.7073,171.34492 58.7073,170.7 C58.7073,170.05065 59.24158,169.5179 59.8894,169.5179 C60.53614,169.5179 61.07,170.05069 61.07,170.7" id="Shape" fill="#FFFFFF"></path>
            <path d="M59.299,177.27 C59.299,177.79681 58.8641,178.22872 58.3373,178.22872 C57.81049,178.22872 57.37522,177.79681 57.37522,177.27 C57.37522,176.74469 57.81049,176.30979 58.3373,176.30979 C58.86411,176.30979 59.299,176.74469 59.299,177.27" id="Shape" fill="#FFFFFF"></path>
            <path d="M47.918,171.81 C47.918,172.33531 47.4846,172.77021 46.95928,172.77021 C46.43098,172.77021 45.9972,172.33531 45.9972,171.81 C45.9972,171.28468 46.43098,170.85091 46.95928,170.85091 C47.48459,170.85091 47.918,171.28468 47.918,171.81" id="Shape" fill="#FFFFFF"></path>
            <path d="M87.668,190.26 C87.668,190.78718 87.27084,191.22058 86.74553,191.22058 C86.21872,191.22058 85.74721,190.78718 85.74721,190.26 C85.74721,189.73469 86.18211,189.29979 86.70742,189.29979 C87.23572,189.29979 87.668,189.73469 87.668,190.26" id="Shape" fill="#FFFFFF"></path>
            <path d="M99.64,181.48 C99.64,182.12936 99.14383,182.6621 98.4941,182.6621 C97.84624,182.6621 97.2757,182.12932 97.2757,181.48 C97.2757,180.83476 97.80961,180.3008 98.4578,180.3008 C99.10716,180.3008 99.64,180.83471 99.64,181.48" id="Shape" fill="#FFFFFF"></path>
            <path d="M101.01,192.77 C101.01,193.29681 100.537,193.73208 100.01318,193.73208 C99.48488,193.73208 99.05148,193.29681 99.05148,192.77 C99.05148,192.24469 99.48488,191.81278 100.01318,191.81278 C100.537,191.81278 101.01,192.24469 101.01,192.77" id="Shape" fill="#FFFFFF"></path>
            <path d="M150.21,181.99 C150.21,182.51568 149.7766,182.95058 149.25129,182.95058 C148.72149,182.95058 148.28809,182.51568 148.28809,181.99 C148.28809,181.46319 148.72149,181.03128 149.25129,181.03128 C149.7766,181.03128 150.21,181.46319 150.21,181.99" id="Shape" fill="#FFFFFF"></path>
            <path d="M127.31,190.11 C127.31,190.6368 126.87809,191.06871 126.34979,191.06871 C125.82447,191.06871 125.38958,190.6368 125.38958,190.11 C125.38958,189.58468 125.82447,189.14979 126.34979,189.14979 C126.87809,189.14979 127.31,189.58468 127.31,190.11" id="Shape" fill="#FFFFFF"></path>
            <path d="M188.93,201.78 C188.93,202.30538 188.4951,202.73886 187.96979,202.73886 C187.44149,202.73886 187.00659,202.30538 187.00659,201.78 C187.00659,201.25311 187.44149,200.81967 187.96979,200.81967 C188.4951,200.81967 188.93,201.25311 188.93,201.78" id="Shape" fill="#FFFFFF"></path>
            <path d="M193.95,156.38 C193.95,157.02786 193.41759,157.5621 192.7679,157.5621 C192.11854,157.5621 191.5858,157.02782 191.5858,156.38 C191.5858,155.73176 192.11858,155.1979 192.7679,155.1979 C193.41763,155.1979 193.95,155.7318 193.95,156.38" id="Shape" fill="#FFFFFF"></path>
            <path d="M184.5,162.8 C184.5,163.32568 184.0666,163.76058 183.5368,163.76058 C183.01112,163.76058 182.57771,163.32568 182.57771,162.8 C182.57771,162.27319 183.01112,161.84128 183.5368,161.84128 C184.0666,161.84128 184.5,162.27319 184.5,162.8" id="Shape" fill="#FFFFFF"></path>
            <path d="M193.81,164.65 C193.81,165.29786 193.27722,165.8321 192.6279,165.8321 C191.97818,165.8321 191.4458,165.29782 191.4458,164.65 C191.4458,164.00326 191.97822,163.4694 192.6279,163.4694 C193.27726,163.4694 193.81,164.00331 193.81,164.65" id="Shape" fill="#FFFFFF"></path>
            <path d="M184.5,176.09 C184.5,176.61531 184.0666,177.04871 183.5368,177.04871 C183.01112,177.04871 182.57771,176.61531 182.57771,176.09 C182.57771,175.56319 183.01112,175.12941 183.5368,175.12941 C184.0666,175.12941 184.5,175.56319 184.5,176.09" id="Shape" fill="#FFFFFF"></path>
            <path d="M208.58,149.96 C208.58,150.48681 208.14511,150.92059 207.61942,150.92059 C207.09411,150.92059 206.66071,150.48681 206.66071,149.96 C206.66071,149.4332 207.09411,149.00129 207.61942,149.00129 C208.14511,149.00129 208.58,149.4332 208.58,149.96" id="Shape" fill="#FFFFFF"></path>
            <path d="M210.91,155.79 C210.91,156.43935 210.41682,156.9721 209.7675,156.9721 C209.11778,156.9721 208.5487,156.43931 208.5487,155.79 C208.5487,155.14176 209.08148,154.6108 209.7279,154.6108 C210.37726,154.6108 210.91,155.14171 210.91,155.79" id="Shape" fill="#FFFFFF"></path>
            <path d="M227.5,162.73 C227.5,163.37786 226.97021,163.9106 226.3179,163.9106 C225.66818,163.9106 225.1358,163.37782 225.1358,162.73 C225.1358,162.08363 225.66822,161.5479 226.3179,161.5479 C226.97025,161.5479 227.5,162.08367 227.5,162.73" id="Shape" fill="#FFFFFF"></path>
            <path d="M210.65,175.06 C210.65,175.58532 210.21211,176.01909 209.68643,176.01909 C209.16111,176.01909 208.72622,175.58532 208.72622,175.06 C208.72622,174.5317 209.16111,174.09979 209.68643,174.09979 C210.21211,174.09979 210.65,174.5317 210.65,175.06" id="Shape" fill="#FFFFFF"></path>
            <path d="M221.29,165.02 C221.29,165.5468 220.8566,165.97871 220.33129,165.97871 C219.80598,165.97871 219.37108,165.5468 219.37108,165.02 C219.37108,164.49319 219.80598,164.05979 220.33129,164.05979 C220.8566,164.05979 221.29,164.49319 221.29,165.02" id="Shape" fill="#FFFFFF"></path>
            <path d="M219.33,180.52 C219.33,181.04718 218.8966,181.47909 218.37129,181.47909 C217.84149,181.47909 217.40809,181.04718 217.40809,180.52 C217.40809,179.99469 217.84149,179.55979 218.37129,179.55979 C218.8966,179.55979 219.33,179.99469 219.33,180.52" id="Shape" fill="#FFFFFF"></path>
            <path d="M223.84,154.76 C223.84,155.57001 223.17122,156.2354 222.3616,156.2354 C221.55159,156.2354 220.8843,155.56998 220.8843,154.76 C220.8843,153.94999 221.55159,153.2846 222.3616,153.2846 C223.17124,153.2846 223.84,153.95002 223.84,154.76" id="Shape" fill="#FFFFFF"></path>
            <polyline id="Shape" fill="#FFFFFF" points="222.36 150.26 221.91913 154.319 217.89113 154.76248 221.95133 155.20336 222.39631 159.41216 222.84167 155.20336 226.83007 154.68813 222.80507 154.319 222.36009 150.26"></polyline>
            <path d="M213.49,180.44 C213.49,181.25002 212.82308,181.9154 212.0131,181.9154 C211.20309,181.9154 210.5347,181.24998 210.5347,180.44 C210.5347,179.62999 211.20312,178.9646 212.0131,178.9646 C212.82311,178.9646 213.49,179.63002 213.49,180.44" id="Shape" fill="#FFFFFF"></path>
            <polyline id="Shape" fill="#FFFFFF" points="212.02 175.94 211.57501 179.999 207.54961 180.44249 211.61121 180.88635 212.05656 185.09225 212.50155 180.88635 216.48885 180.36963 212.46085 179.999 212.01998 175.94"></polyline>
            <path d="M103.26,58.505 C103.26,59.31501 102.59309,59.9804 101.7831,59.9804 C100.97009,59.9804 100.3047,59.31498 100.3047,58.505 C100.3047,57.69499 100.97012,57.0296 101.7831,57.0296 C102.59311,57.0296 103.26,57.69502 103.26,58.505" id="Shape" fill="#FFFFFF"></path>
            <polyline id="Shape" fill="#FFFFFF" points="101.78 54.003 101.33613 58.0617 97.30813 58.50556 101.37273 58.94643 101.81659 63.15533 102.25859 58.94643 106.24889 58.4327 102.22089 58.06169 101.78002 54.00299"></polyline>
            <path d="M158.23,22.783 C158.23,23.59301 157.56159,24.2599 156.7516,24.2599 C155.94159,24.2599 155.2777,23.59298 155.2777,22.783 C155.2777,21.97299 155.94163,21.3061 156.7516,21.3061 C157.56161,21.3061 158.23,21.97302 158.23,22.783" id="Shape" fill="#FFFFFF"></path>
            <polyline id="Shape" fill="#FFFFFF" points="156.75 18.277 156.30912 22.3372 152.28112 22.78106 156.34572 23.22455 156.78659 27.43225 157.23158 23.22455 161.22038 22.70634 157.19238 22.3372 156.75001 18.277"></polyline>
            <path d="M91.4,204.07 C91.4,204.88001 90.73308,205.5455 89.9231,205.5455 C89.1101,205.5455 88.4432,204.88 88.4432,204.07 C88.4432,203.26145 89.11012,202.593 89.9231,202.593 C90.73311,202.593 91.4,203.26141 91.4,204.07" id="Shape" fill="#FFFFFF"></path>
            <polyline id="Shape" fill="#FFFFFF" points="89.958 199.56 89.516 203.6202 85.4891 204.06387 89.5526 204.50609 89.99609 208.71379 90.43846 204.50609 94.42836 203.99091 90.40186 203.6202 89.958 199.56"></polyline>
            <path d="M51.4910567,203.363752 C82.1810499,172.942275 114.239855,153.600707 133.1869,140.73429 C170.6759,115.26529 191.9989,108.84629 256.6769,49.27129 L285.62,11.541 C267.65,64.853 195.66,106.02 135.06,145.321 C105.85562,164.264425 76.8184301,185.494259 53.5796866,205.109863 L53.62187,205.1486 C45.68287,211.7586 38.80367,217.9886 33.20387,223.7566 L33.474,219.686 C39.5568513,213.956225 45.6214026,208.488485 51.4910567,203.363752 Z" id="Combined-Shape" fill="#FC3D21"></path>
            <path d="M159.19,180 C209.569,200.724 200.826,148.353 173.972,108.253 C158.752,85.535 139.982,67.513 126.382,57.473 C110.502,45.748 108.952,44.776 108.952,44.776 C144.414,61.607 176.63,102.941 189.923,133.392 C196.0631,147.451 212.803,203.084 159.486,180.592" id="Shape" fill="#FFFFFF"></path>
        </g>
    </g>
</svg>