<?xml version="1.0" encoding="utf-8"?>
<!-- Generator: Adobe Illustrator 20.1.0, SVG Export Plug-In . SVG Version: 6.00 Build 0)  -->
<svg version="1.1" id="Laag_1" xmlns="http://www.w3.org/2000/svg" xmlns:xlink="http://www.w3.org/1999/xlink" x="0px" y="0px"
	 viewBox="0 0 56 79.7" style="enable-background:new 0 0 56 79.7;" xml:space="preserve">
<style type="text/css">
	.st0{fill:#C89313;}
	.st1{fill:#FFFFFF;}
</style>
<g>
	<g>
		<path class="st0" d="M25.7,60c-3.5,0-6.6-2.4-7.5-5.8c-0.2-0.6-0.3-1.3-0.3-1.9c0-1.5,0.4-2.9,1.1-4.1l1.2-2l0-0.1l5.2-8.5
			l5.4,8.6l1.2,2c0.8,1.2,1.2,2.6,1.2,4c0,1.4-0.3,2.7-1,3.9C31,58.5,28.4,60,25.7,60z"/>
	</g>
	<path class="st1" d="M28.1,0l23.6,37.9l0,0c2.6,4.2,4.2,9.1,4.3,14.4c0.1,5-1.3,9.7-3.5,13.8c-4.9,8.8-15.2,13.8-25.4,13.7
		c-16-0.2-24.2-9.8-26.4-20.6c-0.5-2.2-0.8-4.3-0.6-6.8c0.3-5.2,2.5-10.4,5.1-14.6l0,0L15,21.5l5.7,8.7l-8.1,13.2
		c-1.5,2.5-2.7,5.9-2.6,8.8c0,1.3,0.2,2.6,0.5,3.9c1.9,6.9,8.1,11.7,15.3,11.7c5.5,0,10.7-3,13.4-7.8c1.3-2.4,2-5.1,2-7.8
		c0-2.9-0.9-5.7-2.4-8.2l-19-30.4L28.1,0z"/>
</g>
</svg>
