<?xml version="1.0" encoding="utf-8"?>
<!-- Generator: Adobe Illustrator 20.1.0, SVG Export Plug-In . SVG Version: 6.00 Build 0)  -->
<svg version="1.1" id="Laag_1" xmlns="http://www.w3.org/2000/svg" xmlns:xlink="http://www.w3.org/1999/xlink" x="0px" y="0px"
	 viewBox="0 0 265 59.8" style="enable-background:new 0 0 265 59.8;" xml:space="preserve">
<style type="text/css">
	.st0{fill:#2E2A25;}
	.st1{fill:#C9920E;}
</style>
<g>
	<g>
		<rect x="76.1" y="38.9" class="st0" width="188.9" height="0.5"/>
	</g>
	<g>
		<path class="st0" d="M96,56.8c-0.4,0-0.8-0.2-0.8-0.9c-0.5,0.4-1,0.9-1.9,0.9c-0.9,0-1.7-0.5-1.7-1.5c0-1.1,0.9-1.5,1.8-1.8
			l1.8-0.5v-1.5c0-0.7-0.3-1.2-1-1.2c-0.6,0-0.9,0.1-1.4,0.5l-0.9,0.7l-0.3-0.4c0.8-0.7,1.7-1.2,2.6-1.2c1,0,1.5,0.6,1.5,1.5l0,4.3
			c0,0.6,0.3,0.7,1.1,0.6l-0.1,0.3C96.6,56.6,96.3,56.8,96,56.8z M95.2,55.6v-2.2l-1.5,0.5c-0.9,0.3-1.6,0.6-1.6,1.4
			s0.6,1.1,1.3,1.1C94.3,56.4,94.8,55.9,95.2,55.6z"/>
		<path class="st0" d="M114.6,55.9c-0.5,0.5-1.1,0.9-1.9,0.9c-1.5,0-2.6-1.2-2.6-3.4c0-2.1,1.3-3.4,2.9-3.4c0.7,0,1.2,0.2,1.6,0.5
			v-3.8l0.5-0.2v10.2l-0.5,0.2V55.9z M114.6,55.6v-3.8c0-1.2-0.9-1.5-1.6-1.5c-1.2,0-2.4,1.1-2.4,3c0,2,0.9,3.1,2.2,3.1
			C113.7,56.4,114.3,55.9,114.6,55.6z"/>
		<path class="st0" d="M122.1,50.1l0.5-0.2V51c0.3-0.6,0.9-1.1,1.4-1.1c0.4,0,0.7,0.2,0.9,0.3l-0.2,0.5l-0.8-0.4
			c-0.3,0.1-0.8,0.5-1.3,1.2v5.1h-0.5V50.1z"/>
		<path class="st0" d="M130.1,53.4c0-1.8,0.9-3.5,2.9-3.5c1.5,0,2.5,1.1,2.5,3.4c0,1.8-0.9,3.5-2.9,3.5
			C131.1,56.8,130.1,55.7,130.1,53.4z M135,53.3c0-1.7-0.6-3.1-2-3.1c-1.4,0-2.3,1.1-2.3,3.1c0,1.7,0.6,3.1,2,3.1
			C134,56.4,135,55.3,135,53.3z"/>
		<path class="st0" d="M141.9,50.1l0.5-0.2v0.9c0.5-0.6,1.3-0.9,1.9-0.9c1.6,0,2.6,1.1,2.6,3.1c0,2.3-1.1,3.8-2.8,3.8
			c-0.7,0-1.3-0.2-1.7-0.6v3.5l-0.5,0.2V50.1z M142.4,51.1v3.7c0,1.3,1.1,1.6,1.7,1.6c1.2,0,2.3-1.1,2.3-3.3c0-1.8-0.8-2.7-2.2-2.7
			C143.6,50.3,143,50.6,142.4,51.1z"/>
		<path class="st0" d="M160.8,53.4c0-1.8,0.9-3.5,2.9-3.5c1.5,0,2.5,1.1,2.5,3.4c0,1.8-0.9,3.5-2.9,3.5
			C161.8,56.8,160.8,55.7,160.8,53.4z M165.6,53.3c0-1.7-0.6-3.1-2-3.1c-1.4,0-2.3,1.1-2.3,3.1c0,1.7,0.6,3.1,2,3.1
			C164.7,56.4,165.6,55.3,165.6,53.3z"/>
		<path class="st0" d="M171.7,50.1h0.9v-0.9c0-2,0.9-2.8,2.1-2.8c0.6,0,1,0.2,1.4,0.5l-0.3,0.4l-0.9-0.5h-0.3c-1,0-1.6,0.9-1.6,2.4
			v0.9h1.7l-0.1,0.4h-1.5v6.1h-0.5v-6.1h-1L171.7,50.1z"/>
		<path class="st0" d="M192,52.4l-1.6,4.2l-0.5,0.2l-2.3-6.7h0.5l2.1,6l1.6-4.3l-0.6-1.7h0.5l2,6l2.1-6h0.5l-2.3,6.5l-0.5,0.2
			L192,52.4z"/>
		<path class="st0" d="M201.8,53.4c0-1.8,0.9-3.5,2.9-3.5c1.5,0,2.5,1.1,2.5,3.4c0,1.8-0.9,3.5-2.9,3.5
			C202.8,56.8,201.8,55.7,201.8,53.4z M206.6,53.3c0-1.7-0.6-3.1-2-3.1c-1.4,0-2.3,1.1-2.3,3.1c0,1.7,0.6,3.1,2,3.1
			C205.7,56.4,206.6,55.3,206.6,53.3z"/>
		<path class="st0" d="M217.7,51.9c0-1.1-0.4-1.7-1.5-1.7c-0.9,0-1.7,0.6-2.1,1v5.3h-0.5v-6.5l0.5-0.2v1c0.5-0.5,1.3-1,2.2-1
			c1.3,0,1.9,0.6,1.9,2.1v4.6h-0.5V51.9z"/>
		<path class="st0" d="M229.1,55.9c-0.5,0.5-1.1,0.9-1.9,0.9c-1.5,0-2.6-1.2-2.6-3.4c0-2.1,1.3-3.4,2.9-3.4c0.7,0,1.2,0.2,1.6,0.5
			v-3.8l0.5-0.2v10.2l-0.5,0.2V55.9z M229.1,55.6v-3.8c0-1.2-0.9-1.5-1.6-1.5c-1.2,0-2.4,1.1-2.4,3c0,2,0.9,3.1,2.2,3.1
			C228.1,56.4,228.7,55.9,229.1,55.6z"/>
		<path class="st0" d="M236.5,52.9v0.3c0,2,0.9,3.2,2.4,3.2c0.8,0,1.4-0.3,1.8-0.6l-0.1,0.5c-0.4,0.3-1.1,0.5-1.8,0.5
			c-1.9,0-2.8-1.4-2.8-3.5c0-1.8,1-3.4,2.8-3.4c1.3,0,2,0.7,2,1.8c0,0.3,0,0.7-0.1,1.1L236.5,52.9z M236.6,52.6l3.8-0.2
			c0-0.2,0.1-0.5,0.1-0.7c0-0.9-0.6-1.5-1.5-1.5C237.4,50.3,236.7,51.5,236.6,52.6z"/>
		<path class="st0" d="M247.3,50.1l0.5-0.2V51c0.3-0.6,0.9-1.1,1.4-1.1c0.4,0,0.7,0.2,0.9,0.3l-0.2,0.5l-0.8-0.4
			c-0.3,0.1-0.8,0.5-1.3,1.2v5.1h-0.5V50.1z"/>
	</g>
	<g>
		<path class="st0" d="M154.3,27.6V6.4h-4.5v0.9c0.6,0,1.1,0.1,1.4,0.2c0.8,0.3,1,0.9,1.1,1.4c0.1,0.5,0.1,0.7,0.1,1.8h0v18.8h12
			l1.1-1.9H154.3z"/>
		<path class="st0" d="M183.7,18.6h8.7l1.1-1.8h-9.8V8.2h10.3l1.1-1.8h-16.2v0.9c0.6,0,1.1,0.1,1.4,0.2c0.8,0.3,1,0.9,1.1,1.4
			c0.1,0.5,0.1,0.7,0.1,1.8h0v18.8H194l1.1-1.9h-11.4L183.7,18.6z"/>
		<polygon class="st0" points="186.9,4.6 190.1,4.6 182.9,0.1 182.9,2.1 		"/>
		<g>
			<path class="st0" d="M98.1,6.4l-9.3,13l-9.2-13H76v0.9c0.6,0,1.1,0.1,1.4,0.2c0.4,0.2,0.6,0.4,0.8,0.6l0,0l10.7,15l8.6-12.1v18.6
				h2.2V6.4H98.1z"/>
			<polygon class="st0" points="78.6,29.5 80.5,29.5 80.5,14.5 78.6,11.8 			"/>
		</g>
		<path class="st0" d="M253.6,18.6h8.7l1.1-1.8h-9.8V8.2h10.3l1.1-1.8h-16.2v0.9c0.6,0,1.1,0.1,1.4,0.2c0.8,0.3,1,0.9,1.1,1.4
			c0.1,0.5,0.1,0.7,0.1,1.8h0v18.8h12.4l1.1-1.9h-11.4L253.6,18.6z"/>
		<g>
			<polygon class="st0" points="134.4,6.4 132.4,6.4 126.2,16.3 127.2,18 			"/>
			<path class="st0" d="M118.3,6.4h-3.5v0.9c0.6,0,1.1,0.1,1.4,0.2c0.3,0.1,0.5,0.3,0.7,0.5c0.1,0.1,0.1,0.2,0.2,0.3l7,11.7v9.6h2.2
				v-9.9L118.3,6.4z"/>
		</g>
		<g>
			<path class="st0" d="M229.9,6.4v18.5L215.2,6.4h-3.6v0.9c0.6,0,1,0.1,1.3,0.2c0.6,0.2,0.8,0.5,1.1,0.9l16.8,21.1h1.1V6.4H229.9z"
				/>
			<polygon class="st0" points="214.1,29.5 216,29.5 216,14 214.1,11.6 			"/>
		</g>
	</g>
	<g>
		<g>
			<path class="st1" d="M33,46.1c-0.8,0-1.6-0.6-1.8-1.4c0-0.1-0.1-0.3-0.1-0.5c0-0.4,0.1-0.7,0.3-1l0.3-0.5l0,0l1.2-2l1.3,2.1
				l0.3,0.5c0.2,0.3,0.3,0.6,0.3,1c0,0.3-0.1,0.6-0.2,0.9C34.3,45.8,33.7,46.1,33,46.1z"/>
		</g>
		<path class="st0" d="M11.7,53.6c-0.2,1.5,2.2,2.2,3.6,2.2l0,1.1H0l0-1.1c3.1,0,3.2-1.4,3.5-2.5C3.5,53,13.8,0,13.8,0l19.8,31.7
			L52.4,0c0,0,11.3,52.2,11.5,53.3c0.2,1.1,0.5,2.5,3.6,2.5l0,1.1H52.1l0-1.1c1.4,0,3.7-0.7,3.5-2.2c-0.2-1.5-7.9-40.1-7.9-40.1
			L35,33.9l4.3,6.9l0,0c0.6,1,1,2.2,1,3.4c0,1.2-0.3,2.3-0.8,3.3c-1.2,2.1-3.6,3.3-6.1,3.3c-3.8-0.1-5.8-2.4-6.3-4.9
			c-0.1-0.5-0.2-1-0.1-1.6c0.1-1.3,0.6-2.5,1.2-3.5l0,0l2.4-3.9l1.4,2.1l-1.9,3.2c-0.4,0.6-0.6,1.4-0.6,2.1c0,0.3,0,0.6,0.1,0.9
			c0.4,1.7,1.9,2.8,3.7,2.8c1.3,0,2.6-0.7,3.2-1.9c0.3-0.6,0.5-1.2,0.5-1.9c0-0.7-0.2-1.4-0.6-2L18.6,14.1
			C18.6,14.1,11.8,53.1,11.7,53.6z"/>
	</g>
</g>
</svg>
