<?xml version="1.0" encoding="utf-8"?>
<!-- Generator: Adobe Illustrator 20.1.0, SVG Export Plug-In . SVG Version: 6.00 Build 0)  -->
<svg version="1.1" id="Layer_1" xmlns="http://www.w3.org/2000/svg" xmlns:xlink="http://www.w3.org/1999/xlink" x="0px" y="0px"
	 viewBox="0 0 200 200" style="enable-background:new 0 0 200 200;" xml:space="preserve">
<style type="text/css">
	.st0{fill:#CB952B;}
	.st1{fill:#1C1C1B;}
</style>
<g>
	<g>
		<g>
			<path class="st0" d="M98,129.9c-2.4,0-4.5-1.6-5.1-3.9c-0.1-0.4-0.2-0.9-0.2-1.3c0-1,0.2-1.9,0.8-2.8l0.8-1.3l0,0l3.5-5.7
				l3.7,5.8l0.8,1.3c0.5,0.8,0.8,1.8,0.8,2.7c0,0.9-0.2,1.8-0.7,2.6C101.6,128.9,99.9,129.9,98,129.9z"/>
		</g>
		<path class="st1" d="M83.7,198.1v-21.3h-4.5v0.9c0.6,0,1.1,0.1,1.4,0.2c0.8,0.3,1,0.9,1.1,1.4c0.1,0.5,0.1,0.7,0.1,1.8h0V200h12
			l1.1-1.9H83.7z"/>
		<path class="st1" d="M113.2,189h8.8l1.1-1.8h-9.8v-8.6h10.3l1.1-1.8h-16.2v0.9c0.6,0,1.1,0.1,1.4,0.2c0.8,0.3,1,0.9,1.1,1.4
			c0.1,0.5,0.1,0.7,0.1,1.8h0V200h12.5l1.1-1.9h-11.5L113.2,189z"/>
		<polygon class="st1" points="116.5,175 119.7,175 112.4,170.4 112.4,172.4 		"/>
		<g>
			<path class="st1" d="M27.3,176.8L18,189.9l-9.3-13.1H5.1v0.9c0.6,0,1.1,0.1,1.4,0.2c0.4,0.2,0.6,0.4,0.8,0.6l0,0L18,193.5
				l8.7-12.2V200h2.2v-23.2H27.3z"/>
			<polygon class="st1" points="7.7,200 9.6,200 9.6,184.9 7.7,182.2 			"/>
		</g>
		<path class="st1" d="M183.5,189h8.8l1.1-1.8h-9.8v-8.6h10.3l1.1-1.8h-16.2v0.9c0.6,0,1.1,0.1,1.4,0.2c0.8,0.3,1,0.9,1.1,1.4
			c0.1,0.5,0.1,0.7,0.1,1.8h0V200h12.5l1.1-1.9h-11.5L183.5,189z"/>
		<g>
			<polygon class="st1" points="63.8,176.8 61.7,176.8 55.5,186.7 56.5,188.4 			"/>
			<path class="st1" d="M47.6,176.8h-3.5v0.9c0.6,0,1.1,0.1,1.4,0.2c0.3,0.1,0.5,0.3,0.7,0.5c0.1,0.1,0.1,0.2,0.2,0.3l7.1,11.7v9.6
				h2.2v-10L47.6,176.8z"/>
		</g>
		<g>
			<path class="st1" d="M159.7,176.8v18.6l-14.8-18.6h-3.7v0.9c0.6,0,1,0.1,1.3,0.2c0.6,0.2,0.8,0.5,1.1,0.9l16.9,21.2h1.1v-23.2
				H159.7z"/>
			<polygon class="st1" points="143.9,200 145.7,200 145.7,184.4 143.9,182 			"/>
		</g>
		<path class="st1" d="M38,150.9c-0.5,4.2,6.2,6.3,10.2,6.3l0,3H5l0-3c8.7,0,9.1-4,9.7-7.1C14.9,149.1,43.9,0,43.9,0l55.7,89.3
			l53-89.3c0,0,31.7,146.9,32.3,150c0.6,3.1,1.4,7.1,10.1,7.1l0,3h-43.1l0-3c4,0,10.4-2,9.9-6.3c-0.5-4.2-22.3-113-22.3-113
			l-35.9,57.7l12.1,19.4l0,0c1.8,2.8,2.8,6.1,2.9,9.7c0,3.4-0.8,6.6-2.4,9.3c-3.3,5.9-10.3,9.3-17.1,9.2
			c-10.8-0.2-16.3-6.6-17.8-13.9c-0.3-1.5-0.5-2.9-0.4-4.6c0.2-3.5,1.7-7,3.4-9.9l0,0l6.7-10.9l3.8,5.9l-5.4,8.9c-1,1.7-1.8,4-1.8,6
			c0,0.9,0.1,1.8,0.4,2.6c1.3,4.6,5.5,7.9,10.3,7.9c3.7,0,7.2-2,9-5.2c0.9-1.6,1.4-3.4,1.4-5.3c0-2-0.6-3.9-1.6-5.5L57.3,39.8
			C57.3,39.8,38.1,149.5,38,150.9z"/>
	</g>
</g>
</svg>
